<?xml version="1.0" encoding="iso-8859-1"?>
<!-- Generator: Adobe Illustrator 19.1.0, SVG Export Plug-In . SVG Version: 6.00 Build 0)  -->
<svg version="1.1" id="Capa_1" xmlns="http://www.w3.org/2000/svg" xmlns:xlink="http://www.w3.org/1999/xlink" x="0px" y="0px"
	 viewBox="0 0 62.57 62.57" style="enable-background:new 0 0 62.57 62.57;" xml:space="preserve">
<g>
	<g id="group-4svg">
		<path id="path-1_24_" style="fill:#53ECF4;" d="M54.049,24.37c0-13.365-12.143-23.797-26.22-20.127
			C18.725,6.616,12.596,14.964,12.597,24.37c0,9.445,4.842,17.42,14.842,19.994v16.197c0,1.105,1.128,2.009,2.234,2.009h7
			c1.104,0,1.766-0.904,1.766-2.009V44.383C46.439,41.832,54.049,33.84,54.049,24.37z"/>
		<path id="path-2_24_" style="fill:#EDC951;" d="M27.439,50.57v9.991c0,1.105,1.128,2.009,2.234,2.009h7
			c1.104,0,1.766-0.904,1.766-2.009V50.57H27.439z"/>
		<path id="path-3_23_" style="fill:#E56A77;" d="M54.714,52.081c-1.93,1.929-5.057,1.929-6.986,0c-1.928-1.929-1.928-5.056,0-6.985
			c1.929-1.929,5.056-1.929,6.986,0C56.642,47.025,56.642,50.152,54.714,52.081z"/>
		<path id="path-4_23_" d="M46.22,53.028c-1.719,0-3.336-0.67-4.552-1.887c-2.511-2.51-2.511-6.595,0-9.106
			c1.216-1.216,2.833-1.885,4.552-1.885c1.72,0,3.337,0.669,4.554,1.885c2.511,2.511,2.511,6.596,0,9.106
			C49.557,52.358,47.94,53.028,46.22,53.028z M46.22,43.15c-0.918,0-1.782,0.357-2.431,1.006c-1.341,1.341-1.341,3.523,0,4.865
			c1.299,1.299,3.563,1.298,4.864-0.001c1.341-1.341,1.341-3.523,0-4.864C48.004,43.507,47.139,43.15,46.22,43.15z"/>
		<path id="path-5_20_" d="M31.673,61.57h-7c-2.025,0-3.234-1.125-3.234-3.009V43.5C12.003,40.605,6.41,32.788,6.41,22.37
			c0-10.224,6.647-19.097,16.166-21.578C24.591,0.266,26.629,0,28.635,0c12.221,0,22.164,10.035,22.164,22.37
			c0,10.188-7.563,18.138-15.36,21.079v15.112C35.439,60.361,33.926,61.57,31.673,61.57z M24.439,58.559
			c0.059,0.007,0.135,0.011,0.234,0.011h7c0.376,0,0.636-0.068,0.766-0.125V42.383c0-0.652,0.422-1.23,1.044-1.429
			c6.94-2.213,14.316-9.479,14.316-18.584C47.799,11.69,39.202,3,28.635,3c-1.75,0-3.535,0.234-5.303,0.694
			C15.135,5.832,9.41,13.511,9.41,22.37c0,9.369,5.197,16.301,13.903,18.542c0.663,0.17,1.126,0.768,1.126,1.452V58.559z"/>
		<path id="path-6_19_" d="M33.439,43.57h-11c-0.828,0-1.5-0.671-1.5-1.5c0-0.828,0.672-1.5,1.5-1.5h11c0.828,0,1.5,0.672,1.5,1.5
			C34.939,42.899,34.267,43.57,33.439,43.57z"/>
		<path id="path-7_13_" d="M33.439,48.57h-10c-0.828,0-1.5-0.671-1.5-1.5c0-0.828,0.672-1.5,1.5-1.5h10c0.828,0,1.5,0.672,1.5,1.5
			C34.939,47.899,34.267,48.57,33.439,48.57z"/>
	</g>
</g>
<g>
</g>
<g>
</g>
<g>
</g>
<g>
</g>
<g>
</g>
<g>
</g>
<g>
</g>
<g>
</g>
<g>
</g>
<g>
</g>
<g>
</g>
<g>
</g>
<g>
</g>
<g>
</g>
<g>
</g>
</svg>
